<svg width="120" height="120" viewBox="0 0 120 120" fill="none" xmlns="http://www.w3.org/2000/svg">
<circle cx="60" cy="60" r="57" fill="#05253B" stroke="white" stroke-width="6"/>
<rect x="61" y="5" width="14" height="17" fill="#FEBC02"/>
<rect x="61" y="25" width="14" height="17" fill="#69B030"/>
<rect x="61" y="45" width="14" height="17" fill="#FEBC02"/>
<rect x="61" y="65" width="14" height="17" fill="#FE6B05"/>
<rect x="61" y="85" width="14" height="17" fill="#EE2518"/>
<path d="M61 105H75V113C75 115.761 72.7614 118 70 118H61V105Z" fill="#F61059"/>
<path d="M78 5H80C86.6274 5 92 10.3726 92 17V22H78V5Z" fill="#FEBC02"/>
<path d="M10 32C10 28.134 13.134 25 17 25H24V42H10V32Z" fill="#04BEC7"/>
<rect x="78" y="25" width="14" height="17" fill="#FEBC02"/>
<path d="M10 45H24V62H18C13.5817 62 10 58.4183 10 54V45Z" fill="#F8F1D3"/>
<rect x="78" y="45" width="14" height="17" fill="#FE6B05"/>
<path d="M10 65H24V82H18C13.5817 82 10 78.4183 10 74V65Z" fill="#69B030"/>
<rect x="78" y="65" width="14" height="17" fill="#EE2518"/>
<path d="M10 85H24V102V102C16.268 102 10 95.732 10 88V85Z" fill="#FEBC02"/>
<path d="M78 85H92V94C92 98.4183 88.4183 102 84 102H78V85Z" fill="#F61059"/>
<path d="M27 19C27 11.268 33.268 5 41 5V5V22H27V19Z" fill="#04BEC7"/>
<rect x="27" y="25" width="14" height="17" fill="#04BEC7"/>
<rect x="95" y="25" width="14" height="17" fill="#FE6B05"/>
<rect x="27" y="45" width="14" height="17" fill="#F8F1D3"/>
<path d="M95 45H109V54C109 58.4183 105.418 62 101 62H95V45Z" fill="#EE2518"/>
<rect x="27" y="65" width="14" height="17" fill="#69B030"/>
<path d="M95 65H109V74C109 78.4183 105.418 82 101 82H95V65Z" fill="#F61059"/>
<path d="M27 85H41V102H35C30.5817 102 27 98.4183 27 94V85Z" fill="#FEBC02"/>
<path d="M95 85H109V88C109 95.732 102.732 102 95 102V102V85Z" fill="#F61059"/>
<rect x="44" y="5" width="14" height="17" fill="#F8F1D3"/>
<rect x="44" y="25" width="14" height="17" fill="#F8F1D3"/>
<rect x="44" y="45" width="14" height="17" fill="#69B030"/>
<rect x="44" y="65" width="14" height="17" fill="#FEBC02"/>
<rect x="44" y="85" width="14" height="17" fill="#FE6004"/>
<path d="M44 105H58V118H50C46.6863 118 44 115.314 44 112V105Z" fill="#F61059"/>
<path d="M30.5504 18V10.7273H32.3082V13.6463H35.174V10.7273H36.9283V18H35.174V15.0774H32.3082V18H30.5504Z" fill="#0F132F"/>
<path d="M47.1882 10.7273H49.152L50.6896 13.7706H50.7536L52.2912 10.7273H54.255L51.5952 15.571V18H49.848V15.571L47.1882 10.7273Z" fill="#0F132F"/>
<path d="M68.4567 10.7273V18H66.6989V10.7273H68.4567Z" fill="#0F132F"/>
<path d="M81.5504 10.7273H83.7273L85.5739 15.2301H85.6591L87.5057 10.7273H89.6825V18H87.9709V13.5327H87.9105L86.1634 17.9538H85.0696L83.3224 13.5078H83.2621V18H81.5504V10.7273Z" fill="#0F132F"/>
<path d="M20.152 32.3622H18.3764C18.3527 32.1799 18.3042 32.0154 18.2308 31.8686C18.1574 31.7218 18.0604 31.5964 17.9396 31.4922C17.8189 31.388 17.6757 31.3087 17.5099 31.2543C17.3466 31.1974 17.1655 31.169 16.9666 31.169C16.6139 31.169 16.3097 31.2554 16.054 31.4283C15.8007 31.6011 15.6054 31.8509 15.468 32.1776C15.3331 32.5043 15.2656 32.8996 15.2656 33.3636C15.2656 33.8466 15.3343 34.2514 15.4716 34.5781C15.6113 34.9025 15.8066 35.1475 16.0575 35.3132C16.3108 35.4766 16.6103 35.5582 16.956 35.5582C17.1501 35.5582 17.3265 35.5334 17.4851 35.4837C17.6461 35.4339 17.7869 35.3617 17.9077 35.267C18.0308 35.17 18.1314 35.0528 18.2095 34.9155C18.29 34.7758 18.3456 34.6184 18.3764 34.4432L20.152 34.4538C20.1212 34.7758 20.0277 35.093 19.8714 35.4055C19.7176 35.718 19.5057 36.0033 19.2358 36.2614C18.9659 36.517 18.6368 36.7206 18.2486 36.8722C17.8627 37.0237 17.42 37.0994 16.9205 37.0994C16.2623 37.0994 15.6728 36.955 15.152 36.6662C14.6335 36.375 14.224 35.9512 13.9233 35.3949C13.6226 34.8385 13.4723 34.1615 13.4723 33.3636C13.4723 32.5634 13.625 31.8852 13.9304 31.3288C14.2358 30.7725 14.6489 30.3499 15.1697 30.0611C15.6906 29.7723 16.2741 29.6278 16.9205 29.6278C17.3608 29.6278 17.768 29.6894 18.142 29.8125C18.5161 29.9332 18.8452 30.1108 19.1293 30.3452C19.4134 30.5772 19.6442 30.8625 19.8217 31.201C19.9993 31.5395 20.1094 31.9266 20.152 32.3622Z" fill="#0F132F"/>
<path d="M32.1236 37H30.2344L32.6882 29.7273H35.0284L37.4822 37H35.593L33.8849 31.5597H33.8281L32.1236 37ZM31.8714 34.1378H35.8203V35.473H31.8714V34.1378Z" fill="#0F132F"/>
<path d="M47.5504 37V29.7273H49.3082V32.8026H49.4041L51.8082 29.7273H53.8786L51.3004 32.973L53.9247 37H51.8224L50.0114 34.1413L49.3082 35.0291V37H47.5504Z" fill="#0F132F"/>
<path d="M67.331 34.3864H68.7514L69.3551 35.157L70.147 36.0661L71.3651 37.5682H69.7741L68.9219 36.549L68.4176 35.8246L67.331 34.3864ZM71.4148 33.3636C71.4148 34.1638 71.2609 34.8421 70.9531 35.3984C70.6454 35.9548 70.2287 36.3774 69.7031 36.6662C69.1799 36.955 68.5928 37.0994 67.9418 37.0994C67.2884 37.0994 66.7 36.9538 66.1768 36.6626C65.6536 36.3714 65.2382 35.9489 64.9304 35.3949C64.625 34.8385 64.4723 34.1615 64.4723 33.3636C64.4723 32.5634 64.625 31.8852 64.9304 31.3288C65.2382 30.7725 65.6536 30.3499 66.1768 30.0611C66.7 29.7723 67.2884 29.6278 67.9418 29.6278C68.5928 29.6278 69.1799 29.7723 69.7031 30.0611C70.2287 30.3499 70.6454 30.7725 70.9531 31.3288C71.2609 31.8852 71.4148 32.5634 71.4148 33.3636ZM69.6179 33.3636C69.6179 32.8902 69.5504 32.4901 69.4155 32.1634C69.2829 31.8366 69.0911 31.5893 68.8402 31.4212C68.5916 31.2531 68.2921 31.169 67.9418 31.169C67.5938 31.169 67.2943 31.2531 67.0433 31.4212C66.7924 31.5893 66.5994 31.8366 66.4645 32.1634C66.3319 32.4901 66.2656 32.8902 66.2656 33.3636C66.2656 33.8371 66.3319 34.2372 66.4645 34.5639C66.5994 34.8906 66.7924 35.138 67.0433 35.3061C67.2943 35.4742 67.5938 35.5582 67.9418 35.5582C68.2921 35.5582 68.5916 35.4742 68.8402 35.3061C69.0911 35.138 69.2829 34.8906 69.4155 34.5639C69.5504 34.2372 69.6179 33.8371 69.6179 33.3636Z" fill="#0F132F"/>
<path d="M81.5504 37V29.7273H83.3082V32.6463H86.174V29.7273H87.9283V37H86.174V34.0774H83.3082V37H81.5504Z" fill="#0F132F"/>
<path d="M102.505 29.7273H104.238V34.7557C104.236 35.2268 104.123 35.6387 103.901 35.9915C103.678 36.3419 103.37 36.6141 102.977 36.8082C102.587 37.0024 102.134 37.0994 101.621 37.0994C101.166 37.0994 100.753 37.0201 100.381 36.8615C100.012 36.7029 99.7173 36.4567 99.4972 36.1229C99.2794 35.7891 99.1716 35.3617 99.174 34.8409H100.925C100.932 35.0279 100.967 35.1877 101.031 35.3203C101.098 35.4505 101.189 35.5488 101.305 35.6151C101.421 35.6813 101.559 35.7145 101.72 35.7145C101.888 35.7145 102.03 35.679 102.146 35.608C102.262 35.5346 102.35 35.4268 102.409 35.2848C102.471 35.1428 102.503 34.9664 102.505 34.7557V29.7273Z" fill="#0F132F"/>
<path d="M19.7401 48.7273V56H18.2486L15.3544 51.8026H15.3082V56H13.5504V48.7273H15.0632L17.9254 52.9176H17.9858V48.7273H19.7401Z" fill="#0F132F"/>
<path d="M33.2386 56H30.5504V48.7273H33.2351C33.9761 48.7273 34.6141 48.8729 35.1491 49.1641C35.6866 49.4529 36.1009 49.8696 36.392 50.4141C36.6832 50.9562 36.8288 51.6049 36.8288 52.3601C36.8288 53.1177 36.6832 53.7687 36.392 54.3132C36.1032 54.8577 35.6901 55.2756 35.1527 55.5668C34.6153 55.8556 33.9773 56 33.2386 56ZM32.3082 54.5014H33.1712C33.5784 54.5014 33.9228 54.4328 34.2045 54.2955C34.4886 54.1558 34.7029 53.9297 34.8473 53.6172C34.9941 53.3023 35.0675 52.8833 35.0675 52.3601C35.0675 51.8369 34.9941 51.4202 34.8473 51.1101C34.7005 50.7976 34.4839 50.5727 34.1974 50.4354C33.9134 50.2957 33.563 50.2259 33.1463 50.2259H32.3082V54.5014Z" fill="#0F132F"/>
<path d="M48.5504 56V48.7273H53.6214V50.1548H50.3082V51.6463H53.3622V53.0774H50.3082V54.5724H53.6214V56H48.5504Z" fill="#0F132F"/>
<path d="M70.7401 48.7273V56H69.2486L66.3544 51.8026H66.3082V56H64.5504V48.7273H66.0632L68.9254 52.9176H68.9858V48.7273H70.7401Z" fill="#0F132F"/>
<path d="M82.5504 56V48.7273H85.5547C86.0992 48.7273 86.5691 48.8255 86.9645 49.022C87.3622 49.2161 87.6688 49.4955 87.8842 49.8601C88.0997 50.2223 88.2074 50.652 88.2074 51.1491C88.2074 51.6534 88.0973 52.0819 87.8771 52.4347C87.657 52.785 87.3445 53.0526 86.9396 53.2372C86.5348 53.4195 86.0554 53.5107 85.5014 53.5107H83.6016V52.1257H85.1747C85.4399 52.1257 85.6612 52.0914 85.8388 52.0227C86.0187 51.9517 86.1548 51.8452 86.2472 51.7031C86.3395 51.5587 86.3857 51.3741 86.3857 51.1491C86.3857 50.9242 86.3395 50.7384 86.2472 50.5916C86.1548 50.4425 86.0187 50.3312 85.8388 50.2578C85.6589 50.1821 85.4375 50.1442 85.1747 50.1442H84.3082V56H82.5504ZM86.6449 52.6761L88.456 56H86.5384L84.7628 52.6761H86.6449Z" fill="#0F132F"/>
<path d="M99.5504 56V48.7273H101.308V54.5724H104.334V56H99.5504Z" fill="#0F132F"/>
<path d="M13.5504 76V68.7273H15.3082V71.8026H15.4041L17.8082 68.7273H19.8786L17.3004 71.973L19.9247 76H17.8224L16.0114 73.1413L15.3082 74.0291V76H13.5504Z" fill="#0F132F"/>
<path d="M37.4148 72.3636C37.4148 73.1638 37.2609 73.8421 36.9531 74.3984C36.6454 74.9548 36.2287 75.3774 35.7031 75.6662C35.1799 75.955 34.5928 76.0994 33.9418 76.0994C33.2884 76.0994 32.7 75.9538 32.1768 75.6626C31.6536 75.3714 31.2382 74.9489 30.9304 74.3949C30.625 73.8385 30.4723 73.1615 30.4723 72.3636C30.4723 71.5634 30.625 70.8852 30.9304 70.3288C31.2382 69.7725 31.6536 69.3499 32.1768 69.0611C32.7 68.7723 33.2884 68.6278 33.9418 68.6278C34.5928 68.6278 35.1799 68.7723 35.7031 69.0611C36.2287 69.3499 36.6454 69.7725 36.9531 70.3288C37.2609 70.8852 37.4148 71.5634 37.4148 72.3636ZM35.6179 72.3636C35.6179 71.8902 35.5504 71.4901 35.4155 71.1634C35.2829 70.8366 35.0911 70.5893 34.8402 70.4212C34.5916 70.2531 34.2921 70.169 33.9418 70.169C33.5938 70.169 33.2943 70.2531 33.0433 70.4212C32.7924 70.5893 32.5994 70.8366 32.4645 71.1634C32.3319 71.4901 32.2656 71.8902 32.2656 72.3636C32.2656 72.8371 32.3319 73.2372 32.4645 73.5639C32.5994 73.8906 32.7924 74.138 33.0433 74.3061C33.2943 74.4742 33.5938 74.5582 33.9418 74.5582C34.2921 74.5582 34.5916 74.4742 34.8402 74.3061C35.0911 74.138 35.2829 73.8906 35.4155 73.5639C35.5504 73.2372 35.6179 72.8371 35.6179 72.3636Z" fill="#0F132F"/>
<path d="M48.5504 76V68.7273H51.5547C52.0992 68.7273 52.5691 68.8338 52.9645 69.0469C53.3622 69.2576 53.6688 69.5523 53.8842 69.9311C54.0997 70.3075 54.2074 70.7455 54.2074 71.245C54.2074 71.7469 54.0973 72.1861 53.8771 72.5625C53.6593 72.9366 53.348 73.2266 52.9432 73.4325C52.5384 73.6385 52.0578 73.7415 51.5014 73.7415H49.6477V72.3565H51.1747C51.4399 72.3565 51.6612 72.3104 51.8388 72.218C52.0187 72.1257 52.1548 71.9967 52.2472 71.831C52.3395 71.6629 52.3857 71.4676 52.3857 71.245C52.3857 71.0201 52.3395 70.826 52.2472 70.6626C52.1548 70.4969 52.0187 70.3691 51.8388 70.2791C51.6589 70.1892 51.4375 70.1442 51.1747 70.1442H50.3082V76H48.5504Z" fill="#0F132F"/>
<path d="M64.5504 76V68.7273H67.5831C68.1276 68.7273 68.5833 68.8042 68.9503 68.9581C69.3196 69.112 69.5966 69.3274 69.7812 69.6044C69.9683 69.8814 70.0618 70.2022 70.0618 70.5668C70.0618 70.8438 70.0038 71.0911 69.8878 71.3089C69.7718 71.5244 69.612 71.7031 69.4084 71.8452C69.2048 71.9872 68.9692 72.0866 68.7017 72.1435V72.2145C68.9953 72.2287 69.2663 72.308 69.5149 72.4524C69.7659 72.5968 69.9671 72.7981 70.1186 73.0561C70.2701 73.3118 70.3459 73.6148 70.3459 73.9652C70.3459 74.3558 70.2464 74.705 70.0476 75.0128C69.8487 75.3182 69.5611 75.5597 69.1847 75.7372C68.8082 75.9124 68.3513 76 67.8139 76H64.5504ZM66.3082 74.5831H67.3949C67.776 74.5831 68.0566 74.5109 68.2365 74.3665C68.4188 74.2221 68.5099 74.0208 68.5099 73.7628C68.5099 73.5758 68.4661 73.4148 68.3786 73.2798C68.291 73.1425 68.1667 73.0372 68.0057 72.9638C67.8447 72.888 67.6518 72.8501 67.4268 72.8501H66.3082V74.5831ZM66.3082 71.7173H67.2812C67.473 71.7173 67.6435 71.6854 67.7926 71.6214C67.9418 71.5575 68.0578 71.4652 68.1406 71.3445C68.2259 71.2237 68.2685 71.0781 68.2685 70.9077C68.2685 70.6638 68.1821 70.4721 68.0092 70.3324C67.8364 70.1927 67.6032 70.1229 67.3097 70.1229H66.3082V71.7173Z" fill="#0F132F"/>
<path d="M85.9503 68.7273H87.7045V73.4183C87.7045 73.9605 87.5755 74.4328 87.3175 74.8352C87.0594 75.2353 86.6996 75.5455 86.2379 75.7656C85.7763 75.9834 85.2401 76.0923 84.6293 76.0923C84.0114 76.0923 83.4716 75.9834 83.0099 75.7656C82.5483 75.5455 82.1896 75.2353 81.9339 74.8352C81.6783 74.4328 81.5504 73.9605 81.5504 73.4183V68.7273H83.3082V73.2656C83.3082 73.5166 83.3627 73.7403 83.4716 73.9368C83.5829 74.1333 83.7379 74.2872 83.9368 74.3984C84.1357 74.5097 84.3665 74.5653 84.6293 74.5653C84.892 74.5653 85.1217 74.5097 85.3182 74.3984C85.517 74.2872 85.6721 74.1333 85.7834 73.9368C85.8946 73.7403 85.9503 73.5166 85.9503 73.2656V68.7273Z" fill="#0F132F"/>
<path d="M98.5256 76V74.9986L102.059 70.1548H98.5291V68.7273H104.282V69.7287L100.749 74.5724H104.278V76H98.5256Z" fill="#0F132F"/>
<path d="M13.3125 91.1548V89.7273H19.4595V91.1548H17.2543V97H15.5213V91.1548H13.3125Z" fill="#0F132F"/>
<path d="M31.5504 97V89.7273H36.5149V91.1548H33.3082V92.6463H36.1989V94.0774H33.3082V97H31.5504Z" fill="#0F132F"/>
<path d="M48.294 97L46.1776 89.7273H48.12L49.2173 94.4929H49.2777L50.5312 89.7273H52.1151L53.3686 94.5036H53.429L54.5298 89.7273H56.4688L54.3558 97H52.6619L51.3516 92.5895H51.2947L49.9844 97H48.294Z" fill="#0F132F"/>
<path d="M69.3232 92.103C69.2829 91.9538 69.2237 91.8224 69.1456 91.7088C69.0675 91.5928 68.9716 91.4946 68.858 91.4141C68.7443 91.3336 68.6141 91.2732 68.4673 91.233C68.3205 91.1903 68.1596 91.169 67.9844 91.169C67.6316 91.169 67.3262 91.2543 67.0682 91.4247C66.8125 91.5952 66.6148 91.8437 66.4751 92.1705C66.3355 92.4948 66.2656 92.889 66.2656 93.353C66.2656 93.8194 66.3331 94.2171 66.468 94.5462C66.603 94.8752 66.7983 95.1262 67.054 95.299C67.3097 95.4718 67.6198 95.5582 67.9844 95.5582C68.3063 95.5582 68.5786 95.5062 68.8011 95.402C69.026 95.2955 69.1965 95.1451 69.3125 94.951C69.4285 94.7569 69.4865 94.5284 69.4865 94.2656L69.8132 94.3047H68.0447V93.0227H71.1804V93.9851C71.1804 94.6361 71.0419 95.1937 70.7649 95.6577C70.4903 96.1217 70.1115 96.478 69.6286 96.7266C69.148 96.9751 68.5952 97.0994 67.9702 97.0994C67.2765 97.0994 66.6669 96.9491 66.1413 96.6484C65.6158 96.3478 65.2062 95.9193 64.9126 95.3629C64.6191 94.8042 64.4723 94.1413 64.4723 93.3743C64.4723 92.7777 64.5611 92.2486 64.7386 91.7869C64.9162 91.3229 65.1636 90.9299 65.4808 90.608C65.8004 90.286 66.1697 90.0421 66.5888 89.8764C67.0102 89.7107 67.4635 89.6278 67.9489 89.6278C68.3703 89.6278 68.7621 89.6882 69.1243 89.8089C69.4889 89.9297 69.8108 90.1001 70.0902 90.3203C70.3719 90.5405 70.6004 90.8021 70.7756 91.1051C70.9508 91.4081 71.0597 91.7408 71.1023 92.103H69.3232Z" fill="#0F132F"/>
<path d="M85.4815 91.9077C85.4579 91.6473 85.3525 91.4448 85.1655 91.3004C84.9808 91.1536 84.7169 91.0803 84.3736 91.0803C84.1463 91.0803 83.9569 91.1098 83.8054 91.169C83.6539 91.2282 83.5402 91.3099 83.4645 91.4141C83.3887 91.5159 83.3497 91.633 83.3473 91.7656C83.3426 91.8745 83.3639 91.9704 83.4112 92.0533C83.4609 92.1361 83.532 92.2095 83.6243 92.2734C83.719 92.335 83.8326 92.3894 83.9652 92.4368C84.0978 92.4841 84.2469 92.5256 84.4126 92.5611L85.0376 92.7031C85.3975 92.7812 85.7147 92.8854 85.9893 93.0156C86.2663 93.1458 86.4983 93.3009 86.6854 93.4808C86.8748 93.6607 87.018 93.8679 87.1151 94.1023C87.2121 94.3366 87.2618 94.5994 87.2642 94.8906C87.2618 95.3499 87.1458 95.7441 86.9162 96.0732C86.6866 96.4022 86.3563 96.6544 85.9254 96.8295C85.4969 97.0047 84.9796 97.0923 84.3736 97.0923C83.7652 97.0923 83.2348 97.0012 82.7827 96.8189C82.3305 96.6366 81.9789 96.3596 81.728 95.9879C81.477 95.6162 81.348 95.1463 81.3409 94.5781H83.0241C83.0384 94.8125 83.1011 95.0078 83.2124 95.1641C83.3236 95.3203 83.4763 95.4387 83.6705 95.5192C83.867 95.5997 84.0942 95.6399 84.3523 95.6399C84.589 95.6399 84.7902 95.608 84.956 95.544C85.1241 95.4801 85.2531 95.3913 85.343 95.2777C85.433 95.1641 85.4792 95.0339 85.4815 94.8871C85.4792 94.7498 85.4366 94.6326 85.3537 94.5355C85.2708 94.4361 85.143 94.3509 84.9702 94.2798C84.7997 94.2064 84.5819 94.139 84.3168 94.0774L83.5568 93.8999C82.9271 93.7554 82.4311 93.5223 82.0689 93.2003C81.7067 92.8759 81.5268 92.438 81.5291 91.8864C81.5268 91.4366 81.6475 91.0424 81.8913 90.7038C82.1352 90.3653 82.4725 90.1013 82.9034 89.9119C83.3343 89.7225 83.8255 89.6278 84.3771 89.6278C84.9406 89.6278 85.4295 89.7237 85.8438 89.9155C86.2604 90.1049 86.5836 90.3712 86.8132 90.7145C87.0429 91.0578 87.16 91.4555 87.1648 91.9077H85.4815Z" fill="#0F132F"/>
<path d="M98.5504 97V89.7273H100.308V92.6463H103.174V89.7273H104.928V97H103.174V94.0774H100.308V97H98.5504Z" fill="#0F132F"/>
<path d="M49.3295 108.727L50.6577 111.025H50.7145L52.0568 108.727H54.0241L51.8295 112.364L54.0952 116H52.0781L50.7145 113.678H50.6577L49.294 116H47.2912L49.5462 112.364L47.348 108.727H49.3295Z" fill="#0F132F"/>
<path d="M66.2017 108.727L67.8281 114.054H67.8885L69.5149 108.727H71.4822L69.0284 116H66.6882L64.2344 108.727H66.2017Z" fill="#0F132F"/>
<circle cx="60" cy="60" r="57" stroke="white" stroke-width="6"/>
</svg>
